<?xml version="1.0" encoding="UTF-8"?>
<svg version="1.1" xmlns="http://www.w3.org/2000/svg" width="512" height="512">
<path d="M0 0 C1.59052682 -0.00679667 1.59052682 -0.00679667 3.21318549 -0.01373065 C6.77210651 -0.02640755 10.33087515 -0.02475213 13.88981628 -0.02310181 C16.43911944 -0.029085 18.98842078 -0.03589005 21.53771973 -0.04345703 C27.74743779 -0.05930758 33.95709989 -0.06556635 40.1668363 -0.06668179 C45.21528128 -0.06763253 50.26371375 -0.07174413 55.31215477 -0.07808304 C69.62985246 -0.09569432 83.94752018 -0.10492212 98.26522879 -0.10342209 C99.03691883 -0.10334218 99.80860888 -0.10326227 100.60368347 -0.10317993 C101.37631732 -0.10309817 102.14895117 -0.10301641 102.94499817 -0.10293217 C115.46498923 -0.10211937 127.98485995 -0.1212558 140.50481621 -0.14945666 C153.36456283 -0.17819399 166.22425079 -0.19199648 179.08403033 -0.19026911 C186.30207221 -0.18960549 193.51998794 -0.19508558 200.73800087 -0.21662521 C207.52682298 -0.23675444 214.3153346 -0.23615467 221.1041851 -0.22159195 C223.59545912 -0.21949862 226.08674968 -0.22423576 228.5779953 -0.23631287 C231.97996395 -0.25173641 235.38101035 -0.24247515 238.78295898 -0.22705078 C239.76789221 -0.23733791 240.75282544 -0.24762503 241.76760513 -0.25822389 C248.98004356 -0.18600281 254.23670893 1.44912977 259.78898621 6.12680054 C260.31879089 6.75070679 260.84859558 7.37461304 261.39445496 8.01742554 C261.93715027 8.63101929 262.47984558 9.24461304 263.03898621 9.87680054 C267.32314543 16.51453584 268.01063011 22.54623427 267.87492371 30.23617554 C267.87067886 31.15708984 267.86643402 32.07800415 267.86206055 33.02682495 C267.8453956 35.94066798 267.80776684 38.85379492 267.76945496 41.76742554 C267.75439234 43.75439465 267.74070671 45.7413747 267.72843933 47.72836304 C267.69553212 52.57498911 267.64383527 57.42108631 267.58195496 62.26742554 C268.56317542 62.26558195 269.54439589 62.26373837 270.5553503 62.26183891 C294.44246433 62.21741857 318.329573 62.18456391 342.21671963 62.16380119 C353.76841132 62.15349335 365.32007571 62.13944239 376.87174988 62.11654663 C386.94144381 62.09659773 397.01111797 62.08370552 407.08083111 62.07924855 C412.4115014 62.07664372 417.74211512 62.0705314 423.07276726 62.05596542 C428.09350207 62.04235786 433.11415717 62.03820933 438.13490868 62.04121017 C439.97428572 62.04066143 441.81366552 62.03670296 443.65302658 62.02901459 C446.17231499 62.01900359 448.69130592 62.02147893 451.21060181 62.0269165 C451.93144831 62.02109082 452.65229481 62.01526514 453.39498514 62.00926292 C462.57024582 62.0624668 469.86625436 63.81978862 476.58195496 70.26742554 C481.71852858 76.17448521 483.70208548 80.16165248 483.72912598 88.10414124 C483.73280266 88.80343099 483.73647935 89.50272074 483.74026746 90.2232011 C483.75130204 92.57217849 483.75514776 94.92111165 483.75895691 97.27011108 C483.76522178 98.95213461 483.7718686 100.63415675 483.77886963 102.31617737 C483.79991127 107.84548987 483.81027275 113.37480265 483.82023621 118.90414429 C483.82428385 120.80804776 483.82840078 122.71195109 483.83258629 124.61585426 C483.85163892 133.56142113 483.86586927 142.50697973 483.87419826 151.45256299 C483.88396855 161.77557223 483.91028234 172.09836693 483.95069915 182.42130059 C483.98087172 190.401889 483.99566826 198.38241596 483.99897927 206.3630603 C484.00132865 211.12866438 484.01027432 215.89403929 484.03544044 220.65958214 C484.05874584 225.14529834 484.06294451 229.63063487 484.05267906 234.11639595 C484.05218417 235.75947203 484.05849075 237.40256696 484.07223511 239.04558563 C484.14684349 248.49597036 484.17238637 255.91980956 477.68742371 263.47445679 C468.28396579 271.34578306 464.05448615 271.26742554 450.58195496 271.26742554 C450.58195496 288.75742554 450.58195496 306.24742554 450.58195496 324.26742554 C432.12193077 315.03741344 432.12193077 315.03741344 425.15617371 311.46273804 C423.95925652 310.84941116 423.95925652 310.84941116 422.73815918 310.22369385 C421.07724209 309.37229997 419.41653024 308.5205056 417.75602722 307.66830444 C415.28267846 306.39921061 412.8083355 305.13207097 410.33390808 303.86508179 C397.11126698 297.08762092 383.94830234 290.19973924 370.83822632 283.20700073 C368.00655307 281.69922002 365.1686325 280.20326462 362.33195496 278.70492554 C361.18855652 278.09068726 360.04515808 277.47644897 358.86711121 276.84359741 C357.75722839 276.26029663 356.64734558 275.67699585 355.50382996 275.07601929 C354.04348328 274.29956055 354.04348328 274.29956055 352.55363464 273.50741577 C349.2181705 272.11562951 346.16480464 271.63884576 342.58195496 271.26742554 C342.91195496 272.25742554 343.24195496 273.24742554 343.58195496 274.26742554 C343.68033302 276.45379391 343.71698206 278.64309117 343.72239685 280.83166504 C343.72685353 281.83666402 343.72685353 281.83666402 343.73140025 282.86196601 C343.74008659 285.11187787 343.74159546 287.36173651 343.74308777 289.61166382 C343.74771612 291.22309991 343.75274081 292.83453491 343.75813293 294.44596863 C343.77126041 298.8284865 343.77770299 303.21098904 343.78214359 307.5935235 C343.78507478 310.33289833 343.78917975 313.07226897 343.79364777 315.81164169 C343.80732586 324.38612763 343.81699004 332.96060401 343.82084966 341.5351001 C343.82532625 351.42564892 343.84285429 361.31605926 343.87185025 371.20656598 C343.89349294 378.85511434 343.90355538 386.50362383 343.90489078 394.15220249 C343.90593728 398.71826365 343.91181182 403.28419468 343.92971039 407.85022354 C343.94623501 412.14958408 343.94832534 416.44871732 343.93957138 420.74809837 C343.93880325 422.3214078 343.94311399 423.89472967 343.95302963 425.46800804 C344.06998874 445.19119053 344.06998874 445.19119053 336.95695496 453.07992554 C336.34593933 453.78762085 335.73492371 454.49531616 335.10539246 455.22445679 C328.81864249 460.31419399 322.45899142 461.8635711 314.52067566 461.52767944 C313.66402817 461.50910385 312.80738068 461.49052826 311.92477417 461.47138977 C310.07987633 461.43076413 308.23514557 461.38184798 306.39066505 461.32536697 C302.44733359 461.21405513 298.50423164 461.17495636 294.55967236 461.13068199 C287.23637404 461.04707757 279.91613938 460.93268643 272.59587097 460.70199585 C249.05163789 458.57263832 249.05163789 458.57263832 227.88517761 466.02304077 C224.63389733 469.67711466 222.4445786 473.6115201 220.53956604 478.09860229 C219.26436925 480.98670216 217.48400724 483.28006303 215.50382996 485.72445679 C214.44426947 487.17462471 213.38687235 488.62637652 212.33195496 490.07992554 C206.859235 497.56478891 201.28094792 504.95328019 195.58195496 512.26742554 C192.43117487 510.91751188 190.79532378 509.60467575 188.83976746 506.80258179 C188.33799988 506.09440308 187.8362323 505.38622437 187.31925964 504.65658569 C186.7871991 503.88878784 186.25513855 503.12098999 185.70695496 502.32992554 C184.54907244 500.69251926 183.39018405 499.0558239 182.23039246 497.41976929 C181.63194519 496.57140503 181.03349792 495.72304077 180.41691589 494.84896851 C177.43907293 490.65954441 174.3869396 486.52576352 171.33195496 482.39242554 C170.79070984 481.65774048 170.24946472 480.92305542 169.69181824 480.16610718 C168.62487687 478.71985517 167.54108748 477.2858521 166.43930054 475.8659668 C164.58195496 473.26742554 164.58195496 473.26742554 162.97592163 470.22660828 C159.44529487 464.14774349 159.44529487 464.14774349 153.60232162 460.59600067 C147.64324356 459.54554939 141.60704396 459.87141219 135.58586121 460.05258179 C133.62730807 460.06524207 131.66870739 460.07184957 129.71011353 460.07270813 C124.56851207 460.08781097 119.43038764 460.17013283 114.2898407 460.27133179 C106.06867242 460.42447964 97.84686426 460.48632646 89.62447929 460.52673149 C86.76646075 460.5520885 83.91087031 460.61301409 81.05352783 460.67857361 C70.70097374 460.83875766 62.50245879 460.66771541 54.46331787 453.33494568 C46.9330453 445.81023232 46.20081397 437.01952537 46.17536926 426.83996582 C46.18120049 425.33791994 46.18734489 423.83587524 46.19377136 422.33383179 C46.18970049 420.73136031 46.18435572 419.12889163 46.17784119 417.52642822 C46.16422306 413.1958458 46.16944337 408.86547899 46.17897844 404.53489304 C46.18660367 399.99073479 46.1795215 395.44659431 46.17481995 390.9024353 C46.16937071 383.27308863 46.17653213 375.64382925 46.19084167 368.01449585 C46.20716659 359.20927084 46.20187749 350.40425427 46.18536246 341.59903431 C46.17172384 334.022536 46.16983953 326.44610024 46.17767847 318.86959362 C46.18234194 314.3517077 46.18301645 309.83391957 46.173069 305.31604004 C46.16436696 301.06745836 46.17048001 296.81914395 46.18775177 292.57059097 C46.19169939 291.01663785 46.19061231 289.46266202 46.18396378 287.90871811 C46.14182722 277.05489942 46.73999083 267.84772237 53.77336121 259.06039429 C59.63035074 253.25400509 66.584614 251.16942914 74.66296387 251.10920715 C75.66270737 251.09941833 76.66245087 251.08962952 77.69248962 251.07954407 C79.32060577 251.07091087 79.32060577 251.07091087 80.98161316 251.06210327 C82.13326462 251.05220367 83.28491608 251.04230408 84.47146606 251.03210449 C88.27520192 251.00053618 92.07895026 250.97575039 95.88273621 250.95101929 C98.52118249 250.93044574 101.1596255 250.90944916 103.79806519 250.88804626 C110.0310841 250.83819754 116.26412826 250.79322982 122.49719638 250.7500239 C129.59515151 250.70058454 136.69306121 250.64569133 143.79097235 250.59034431 C158.38792469 250.47664437 172.9849236 250.37049928 187.58195496 250.26742554 C187.58195496 237.06742554 187.58195496 223.86742554 187.58195496 210.26742554 C173.63523133 209.94957501 173.63523133 209.94957501 159.68937683 209.79281616 C153.96842174 209.76386126 148.25183116 209.71931325 142.53288269 209.55770874 C116.15263298 208.84052236 97.22428761 212.0553559 74.76145935 226.28486633 C70.56861521 228.89928692 66.2365983 231.16187759 61.83195496 233.39242554 C60.39052102 234.15162489 58.9502557 234.91305096 57.51164246 235.67758179 C50.38518176 239.43464702 43.21864465 243.11522737 36.05924988 246.809021 C27.75613271 251.09350395 19.46872697 255.40453088 11.2396698 259.83016968 C6.68542509 262.26742554 6.68542509 262.26742554 5.58195496 262.26742554 C5.58195496 245.10742554 5.58195496 227.94742554 5.58195496 210.26742554 C2.61195496 210.26742554 -0.35804504 210.26742554 -3.41804504 210.26742554 C-11.88703835 209.57850322 -17.6412112 206.62024712 -23.21101379 200.20101929 C-27.3810526 194.82256068 -28.54189177 191.28393864 -28.56521606 184.39274597 C-28.56889275 183.68937267 -28.57256944 182.98599936 -28.57635754 182.26131171 C-28.58739251 179.89851482 -28.59123791 177.53576192 -28.595047 175.17294312 C-28.60131184 173.48106751 -28.60795866 171.78919328 -28.61495972 170.09732056 C-28.63600167 164.53554238 -28.64636285 158.97376393 -28.65632629 153.41195679 C-28.66037393 151.49690931 -28.66449085 149.58186198 -28.66867638 147.6668148 C-28.68772906 138.6689222 -28.70195942 129.6710378 -28.71028835 120.6731289 C-28.72005873 110.28955968 -28.74637274 99.90620374 -28.78678924 89.52270967 C-28.81696122 81.49541252 -28.83175829 73.46817648 -28.83506936 65.44082373 C-28.8374188 60.64727454 -28.8463653 55.85395318 -28.87153053 51.06046486 C-28.8948349 46.54848448 -28.89903501 42.03688156 -28.88876915 37.52485657 C-28.88827424 35.87210521 -28.89458154 34.21933514 -28.9083252 32.56664085 C-28.98414989 22.90518892 -29.00018558 15.4315553 -22.23445129 7.80648804 C-21.1187677 6.8590271 -21.1187677 6.8590271 -19.98054504 5.89242554 C-19.23933411 5.24531616 -18.49812317 4.59820679 -17.73445129 3.93148804 C-12.02786063 -0.16801891 -6.79480746 -0.02122264 0 0 Z " fill="#FED15C" transform="translate(28.418045043945313,-0.267425537109375)"/>
<path d="M0 0 C0.94730295 -0.00171833 1.8946059 -0.00343666 2.87061501 -0.00520706 C6.05519905 -0.00956364 9.23973154 -0.00656481 12.42431641 -0.00341797 C14.71736673 -0.0046065 17.0104169 -0.00613097 19.3034668 -0.00796509 C26.87761558 -0.01177545 34.45173548 -0.00403932 42.02587891 0.00439453 C44.64251706 0.00666832 47.25915524 0.00890611 49.87579346 0.0111084 C67.52825993 0.02765606 85.18063691 0.06636207 102.83304822 0.11243343 C108.20559022 0.12624175 113.57813431 0.13775738 118.95068359 0.14831543 C136.11088379 0.18255567 153.27088679 0.23129497 170.43091774 0.31651115 C177.97272863 0.35375475 185.51444377 0.38504354 193.05633545 0.39984131 C199.50663686 0.41263425 205.95669806 0.43934684 212.40686202 0.48380697 C215.71166698 0.50621468 219.01612408 0.52021593 222.3210144 0.52131271 C225.92272391 0.52366516 229.52345882 0.55054328 233.125 0.58349609 C234.68994485 0.5759496 234.68994485 0.5759496 236.28650475 0.56825066 C243.80594768 0.67543914 249.93754092 2.20218489 255.92041016 6.91845703 C256.42958984 7.52431641 256.93876953 8.13017578 257.46337891 8.75439453 C257.98544922 9.34478516 258.50751953 9.93517578 259.04541016 10.54345703 C264.79624761 19.80636309 265.22416256 28.6342806 265.15258789 39.26831055 C265.15637723 40.88078278 265.16188233 42.49325174 265.16896057 44.10571289 C265.18285119 48.45903209 265.17179118 52.81195322 265.15524936 57.16525006 C265.14133481 61.7347574 265.14786611 66.30424312 265.15138245 70.87376404 C265.15407925 78.54424405 265.14065371 86.21456711 265.11743164 93.88500977 C265.09081577 102.73741018 265.08907982 111.58954845 265.10082 120.44197518 C265.11161981 128.97963518 265.10539406 137.5172009 265.09126472 146.05485344 C265.08552497 149.67864158 265.0855717 153.30236026 265.09033012 156.92614937 C265.09512202 161.19691966 265.08490717 165.4674049 265.06337547 169.73812103 C265.0578378 171.30013251 265.05731437 172.86217155 265.06232834 174.4241848 C265.11747568 194.07693433 265.11747568 194.07693433 258.02587891 201.94189453 C257.41486328 202.64958984 256.80384766 203.35728516 256.17431641 204.08642578 C249.88756644 209.17616298 243.52791537 210.7255401 235.58959961 210.38964844 C234.73295212 210.37107285 233.87630463 210.35249725 232.99369812 210.33335876 C231.14880028 210.29273312 229.30406952 210.24381698 227.459589 210.18733597 C223.51625754 210.07602413 219.57315559 210.03692536 215.62859631 209.99265099 C208.30529799 209.90904657 200.98506333 209.79465543 193.66479492 209.56396484 C170.12056184 207.43460731 170.12056184 207.43460731 148.95410156 214.88500977 C145.70282128 218.53908365 143.51350255 222.4734891 141.60848999 226.96057129 C140.3332932 229.84867116 138.55293119 232.14203202 136.57275391 234.58642578 C135.51319342 236.03659371 134.4557963 237.48834552 133.40087891 238.94189453 C127.92815895 246.42675791 122.34987187 253.81524918 116.65087891 261.12939453 C113.50009882 259.77948087 111.86424773 258.46664474 109.90869141 255.66455078 C109.40692383 254.95637207 108.90515625 254.24819336 108.38818359 253.51855469 C107.85612305 252.75075684 107.3240625 251.98295898 106.77587891 251.19189453 C105.61799639 249.55448825 104.459108 247.91779289 103.29931641 246.28173828 C102.40164551 245.00919189 102.40164551 245.00919189 101.48583984 243.7109375 C98.50799688 239.52151341 95.45586355 235.38773251 92.40087891 231.25439453 C91.58901123 230.15236694 91.58901123 230.15236694 90.76074219 229.02807617 C89.69380082 227.58182417 88.61001143 226.1478211 87.50822449 224.72793579 C85.65087891 222.12939453 85.65087891 222.12939453 84.04484558 219.08857727 C80.51421882 213.00971249 80.51421882 213.00971249 74.67124557 209.45796967 C68.71216751 208.40751838 62.67596791 208.73338119 56.65478516 208.91455078 C54.69623202 208.92721107 52.73763134 208.93381856 50.77903748 208.93467712 C45.63743602 208.94977996 40.49931159 209.03210183 35.35876465 209.13330078 C27.13759637 209.28644864 18.91578821 209.34829545 10.69340324 209.38870049 C7.8353847 209.41405749 4.97979426 209.47498308 2.12245178 209.5405426 C-8.23010231 209.70072665 -16.42861726 209.52968441 -24.46775818 202.19691467 C-31.99803075 194.67220132 -32.73026208 185.88149436 -32.75570679 175.70193481 C-32.74987556 174.19988893 -32.74373116 172.69784424 -32.73730469 171.19580078 C-32.74137556 169.5933293 -32.74672033 167.99086063 -32.75323486 166.38839722 C-32.76685299 162.05781479 -32.76163268 157.72744798 -32.75209761 153.39686203 C-32.74447238 148.85270379 -32.75155455 144.30856331 -32.7562561 139.7644043 C-32.76170534 132.13505763 -32.75454392 124.50579824 -32.74023438 116.87646484 C-32.72390946 108.07123984 -32.72919856 99.26622326 -32.74571359 90.4610033 C-32.75935221 82.884505 -32.76123652 75.30806924 -32.75339758 67.73156261 C-32.74873411 63.21367669 -32.7480596 58.69588857 -32.75800705 54.17800903 C-32.76670909 49.92942735 -32.76059604 45.68111295 -32.74332428 41.43255997 C-32.73937666 39.87860685 -32.74046374 38.32463101 -32.74711227 36.7706871 C-32.78924883 25.91686842 -32.19108522 16.70969136 -25.15771484 7.92236328 C-17.9090968 0.73636828 -9.67487837 -0.02222114 0 0 Z " fill="#66C6B9" transform="translate(107.34912109375,250.87060546875)"/>
<path d="M0 0 C1.59052682 -0.00679667 1.59052682 -0.00679667 3.21318549 -0.01373065 C6.77210651 -0.02640755 10.33087515 -0.02475213 13.88981628 -0.02310181 C16.43911944 -0.029085 18.98842078 -0.03589005 21.53771973 -0.04345703 C27.74743779 -0.05930758 33.95709989 -0.06556635 40.1668363 -0.06668179 C45.21528128 -0.06763253 50.26371375 -0.07174413 55.31215477 -0.07808304 C69.62985246 -0.09569432 83.94752018 -0.10492212 98.26522879 -0.10342209 C99.03691883 -0.10334218 99.80860888 -0.10326227 100.60368347 -0.10317993 C101.37631732 -0.10309817 102.14895117 -0.10301641 102.94499817 -0.10293217 C115.46498923 -0.10211937 127.98485995 -0.1212558 140.50481621 -0.14945666 C153.36456283 -0.17819399 166.22425079 -0.19199648 179.08403033 -0.19026911 C186.30207221 -0.18960549 193.51998794 -0.19508558 200.73800087 -0.21662521 C207.52682298 -0.23675444 214.3153346 -0.23615467 221.1041851 -0.22159195 C223.59545912 -0.21949862 226.08674968 -0.22423576 228.5779953 -0.23631287 C231.97996395 -0.25173641 235.38101035 -0.24247515 238.78295898 -0.22705078 C239.76789221 -0.23733791 240.75282544 -0.24762503 241.76760513 -0.25822389 C248.98004356 -0.18600281 254.23670893 1.44912977 259.78898621 6.12680054 C260.31879089 6.75070679 260.84859558 7.37461304 261.39445496 8.01742554 C261.93715027 8.63101929 262.47984558 9.24461304 263.03898621 9.87680054 C267.37050612 16.58791494 268.00877321 22.6811205 267.87492371 30.45492554 C267.87067886 31.39803589 267.86643402 32.34114624 267.86206055 33.31283569 C267.84539065 36.29800072 267.80776071 39.28246772 267.76945496 42.26742554 C267.75439299 44.30257197 267.74070725 46.33772909 267.72843933 48.37289429 C267.6955255 53.33800323 267.64382495 58.30259641 267.58195496 63.26742554 C266.46228333 63.27289398 266.46228333 63.27289398 265.31999207 63.2784729 C258.2584642 63.31646264 251.19739789 63.37343875 244.13621521 63.45132828 C240.50662016 63.49070656 236.87726419 63.52294172 233.2474823 63.53842163 C229.73936268 63.55365271 226.23190078 63.58820987 222.72407532 63.63573456 C220.74573293 63.65762153 218.76720463 63.65989372 216.78874207 63.66177368 C208.54193859 63.79499295 202.64320186 64.52245273 196.37492371 70.30258179 C195.84511902 70.97160522 195.31531433 71.64062866 194.76945496 72.32992554 C191.5167022 76.35530365 188.74823245 79.24693002 184.26945496 81.89242554 C178.93069131 85.37612123 175.01576185 90.0534321 172.94132996 96.15023804 C171.4469327 104.95418709 171.78843274 113.68060192 176.87101746 121.16586304 C180.27388021 125.47858214 183.82457303 127.59818121 188.58195496 130.26742554 C188.60507871 140.55047092 188.62287021 150.83351016 188.63376713 161.11657619 C188.63899589 165.89090833 188.6460934 170.66522274 188.65739441 175.43954468 C188.66822355 180.04308815 188.67423185 184.64661453 188.6768322 189.25016975 C188.6786864 191.01052177 188.68230692 192.7708728 188.68768501 194.53121758 C188.69489581 196.98814831 188.69594588 199.44500749 188.69548035 201.90194702 C188.69907562 202.63706009 188.7026709 203.37217316 188.70637512 204.12956238 C188.69600712 209.15337338 188.69600712 209.15337338 187.58195496 210.26742554 C185.16845801 210.30211249 182.78421714 210.27307531 180.37297058 210.20297241 C178.80214862 210.16683597 177.23130569 210.13160251 175.66044617 210.09713745 C174.3997657 210.06823174 174.3997657 210.06823174 173.11361694 210.03874207 C167.65775754 209.92950375 162.20079003 209.8996327 156.7440567 209.85990143 C151.98658071 209.82095407 147.23359879 209.75291361 142.47795105 209.61264038 C116.1034241 208.86516896 97.22194109 212.05357065 74.76246643 226.28385925 C70.56939948 228.89891859 66.23711771 231.16176031 61.83195496 233.39242554 C60.39051913 234.15162132 58.95025361 234.91304702 57.51164246 235.67758179 C50.38518176 239.43464702 43.21864465 243.11522737 36.05924988 246.809021 C27.75613271 251.09350395 19.46872697 255.40453088 11.2396698 259.83016968 C6.68542509 262.26742554 6.68542509 262.26742554 5.58195496 262.26742554 C5.58195496 245.10742554 5.58195496 227.94742554 5.58195496 210.26742554 C2.61195496 210.26742554 -0.35804504 210.26742554 -3.41804504 210.26742554 C-11.88703835 209.57850322 -17.6412112 206.62024712 -23.21101379 200.20101929 C-27.3810526 194.82256068 -28.54189177 191.28393864 -28.56521606 184.39274597 C-28.56889275 183.68937267 -28.57256944 182.98599936 -28.57635754 182.26131171 C-28.58739251 179.89851482 -28.59123791 177.53576192 -28.595047 175.17294312 C-28.60131184 173.48106751 -28.60795866 171.78919328 -28.61495972 170.09732056 C-28.63600167 164.53554238 -28.64636285 158.97376393 -28.65632629 153.41195679 C-28.66037393 151.49690931 -28.66449085 149.58186198 -28.66867638 147.6668148 C-28.68772906 138.6689222 -28.70195942 129.6710378 -28.71028835 120.6731289 C-28.72005873 110.28955968 -28.74637274 99.90620374 -28.78678924 89.52270967 C-28.81696122 81.49541252 -28.83175829 73.46817648 -28.83506936 65.44082373 C-28.8374188 60.64727454 -28.8463653 55.85395318 -28.87153053 51.06046486 C-28.8948349 46.54848448 -28.89903501 42.03688156 -28.88876915 37.52485657 C-28.88827424 35.87210521 -28.89458154 34.21933514 -28.9083252 32.56664085 C-28.98414989 22.90518892 -29.00018558 15.4315553 -22.23445129 7.80648804 C-21.1187677 6.8590271 -21.1187677 6.8590271 -19.98054504 5.89242554 C-19.23933411 5.24531616 -18.49812317 4.59820679 -17.73445129 3.93148804 C-12.02786063 -0.16801891 -6.79480746 -0.02122264 0 0 Z " fill="#F3705A" transform="translate(28.418045043945313,-0.267425537109375)"/>
<path d="M0 0 C6.62128056 4.4979477 12.0044041 10.52729659 14.625 18.1875 C14.686875 19.05375 14.74875 19.92 14.8125 20.8125 C14.89757812 21.50730469 14.98265625 22.20210938 15.0703125 22.91796875 C15.69288706 31.43099917 12.42828196 38.6015276 6.9140625 45.0234375 C0.12032365 51.38753279 -6.76076089 53.54701046 -16.0234375 53.2890625 C-24.01014586 52.08612618 -31.22566619 48.0185222 -36.078125 41.5390625 C-40.51821243 34.62878559 -42.11800556 27.96107015 -41.1875 19.8125 C-38.83415958 11.46239452 -33.38040745 4.65682262 -26.25 -0.1875 C-18.62672992 -4.03182488 -7.54030284 -3.97855175 0 0 Z " fill="#FDFEFE" transform="translate(158.1875,331.1875)"/>
<path d="M0 0 C6.98851544 3.56782104 13.13687885 9.96589395 16.2265625 17.19921875 C18.79765746 25.71912167 17.12880197 33.33667077 13.2265625 41.19921875 C8.90057357 48.12315213 3.03416791 51.96700482 -4.7734375 54.19921875 C-13.64030857 55.47885659 -20.28798268 53.74537136 -27.70703125 48.94921875 C-33.69062251 44.41970451 -37.32562646 37.52602005 -38.7734375 30.19921875 C-39.68681914 22.36809417 -37.79984442 16.3321328 -33.16015625 9.99609375 C-24.56579218 -0.29427565 -13.04060518 -3.76524516 0 0 Z " fill="#FDFEFE" transform="translate(234.7734375,329.80078125)"/>
<path d="M0 0 C7.31262554 3.31984227 11.76324772 8.5466456 15.984375 15.21875 C18.74291081 22.78303687 18.31493007 32.46407559 14.984375 39.71875 C10.68331947 46.98355808 4.22179997 51.94246548 -3.953125 54.15625 C-13.87525467 55.48833014 -21.0622751 53.61970165 -28.984375 47.6171875 C-35.39573344 41.88499839 -38.07868267 34.77176958 -38.578125 26.28125 C-38.28223786 18.6276359 -35.41794074 11.64168964 -29.984375 6.17578125 C-28.0226981 4.64793674 -26.12469478 3.36578243 -23.953125 2.15625 C-23.03015625 1.62128906 -22.1071875 1.08632812 -21.15625 0.53515625 C-14.61968981 -2.2787532 -6.78687427 -1.93910693 0 0 Z " fill="#FFFEFD" transform="translate(452.953125,140.84375)"/>
<path d="M0 0 C6.46780259 3.30198343 12.09693169 9.08515923 15.4296875 15.5234375 C17.84695892 23.64025574 17.21503807 33.75406436 13.2265625 41.19921875 C9.05111878 48.02643549 2.68717567 51.64000235 -4.7734375 54.19921875 C-13.69156642 55.65773921 -20.63091005 53.73757097 -27.96484375 48.69140625 C-33.14661928 44.58797443 -35.55624994 40.34972208 -37.7734375 34.19921875 C-38.1034375 33.53921875 -38.4334375 32.87921875 -38.7734375 32.19921875 C-39.71606546 23.68863491 -38.54970634 17.33072759 -33.7734375 10.19921875 C-25.0481642 -0.13334174 -13.09241892 -3.78020546 0 0 Z " fill="#FDFEFE" transform="translate(312.7734375,329.80078125)"/>
<path d="M0 0 C6.47662455 4.57650572 11.13480548 9.73575193 13.18359375 17.54296875 C14.41562112 26.94194045 12.31545093 34.24290276 7.55859375 42.29296875 C-0.10194958 49.55032559 -7.81132349 51.98567579 -18.16796875 51.87890625 C-25.5341289 51.20065167 -30.72426731 48.04302488 -35.75390625 42.73046875 C-42.06723171 34.70480266 -42.99949438 26.65609713 -41.81640625 16.54296875 C-39.21176703 7.65584325 -33.35472318 2.35672525 -25.69140625 -2.39453125 C-17.30250689 -5.44678525 -7.60178585 -4.45621929 0 0 Z " fill="#FEFDFD" transform="translate(83.81640625,80.45703125)"/>
<path d="M0 0 C7.61078624 4.46149538 13.28235171 10.24865091 15.5625 18.9375 C16.74005558 27.92091367 15.40437092 35.92485578 9.83203125 43.1953125 C3.36383412 50.19284312 -2.86346258 53.09810405 -12.375 53.5 C-21.17420369 53.20606108 -27.32358743 50.51680453 -33.375 44.125 C-39.55572231 36.28247971 -40.31646894 28.80423583 -39.4375 18.9375 C-38.04226814 11.43341511 -33.29056997 5.7791391 -27.25 1.32421875 C-18.86796542 -3.56989683 -8.84711767 -4.05324569 0 0 Z " fill="#FEFDFD" transform="translate(160.4375,79.0625)"/>
<path d="M0 0 C6.08490522 4.41663595 10.81267876 10.11018677 12.22265625 17.61328125 C13.25993086 27.83043617 11.75856301 35.30219136 5.47265625 43.42578125 C1.1174609 48.20208963 -5.12981344 51.25517869 -11.5625 51.88671875 C-21.48288288 52.1941442 -28.22321467 50.06792632 -35.65234375 43.42578125 C-41.60846569 36.89235198 -43.54452587 29.29321003 -43.23046875 20.578125 C-42.12566109 13.34925421 -38.42946848 7.21384789 -32.77734375 2.61328125 C-22.75697333 -4.42101879 -11.10566313 -6.41058604 0 0 Z " fill="#FFFEFD" transform="translate(378.77734375,143.38671875)"/>
<path d="M0 0 C6.07640058 4.41046299 10.82813294 10.11300722 12.22265625 17.61328125 C13.10877891 27.56032011 12.34071931 35.01731809 6.03515625 42.86328125 C1.37967511 47.89436384 -4.67808363 51.21082934 -11.5625 51.88671875 C-20.771942 52.17211266 -27.12136406 50.79253947 -34.06640625 44.55859375 C-40.20793074 38.10440983 -42.82424126 32.60776247 -43.27734375 23.73828125 C-43.04428678 15.70288215 -39.89978238 9.66477673 -34.58984375 3.73828125 C-25.08676343 -4.90645633 -11.12746727 -6.42317216 0 0 Z " fill="#FFFEFD" transform="translate(299.77734375,143.38671875)"/>
<path d="M0 0 C-0.33 16.83 -0.66 33.66 -1 51 C-8.86982471 47.85207012 -13.33817807 43.60532248 -17 36 C-19.2771783 28.92556609 -19.15891888 19.65674035 -16.11328125 12.84375 C-12.56930458 6.97442723 -7.36784057 0 0 0 Z " fill="#FEFBF7" transform="translate(218,79)"/>
</svg>
